<svg xmlns="http://www.w3.org/2000/svg" viewBox="0 0 180 180" width="180" height="180">
  <defs>
    <linearGradient id="grad180" x1="0%" y1="0%" x2="100%" y2="100%">
      <stop offset="0%" style="stop-color:#4F46E5;stop-opacity:1" />
      <stop offset="100%" style="stop-color:#7C3AED;stop-opacity:1" />
    </linearGradient>
  </defs>
  
  <!-- Rounded square for Apple touch icon -->
  <rect x="15" y="15" width="150" height="150" rx="35" ry="35" fill="url(#grad180)" />
  
  <!-- Enhanced sparkles for Apple touch icon -->
  <g fill="white" opacity="0.9">
    <!-- Main sparkle in center -->
    <path d="M90 35 L94 50 L109 54 L94 58 L90 73 L86 58 L71 54 L86 50 Z" />
    
    <!-- Medium sparkles -->
    <path d="M125 60 L127 68 L135 70 L127 72 L125 80 L123 72 L115 70 L123 68 Z" />
    <path d="M55 110 L57 118 L65 120 L57 122 L55 130 L53 122 L45 120 L53 118 Z" />
    <path d="M135 115 L137 121 L143 123 L137 125 L135 131 L133 125 L127 123 L133 121 Z" />
    <path d="M45 65 L47 71 L53 73 L47 75 L45 81 L43 75 L37 73 L43 71 Z" />
    
    <!-- Small sparkles -->
    <path d="M65 50 L66 53 L69 54 L66 55 L65 58 L64 55 L61 54 L64 53 Z" />
    <path d="M115 45 L116 48 L119 49 L116 50 L115 53 L114 50 L111 49 L114 48 Z" />
    <path d="M50 130 L51 133 L54 134 L51 135 L50 138 L49 135 L46 134 L49 133 Z" />
    <path d="M130 140 L131 143 L134 144 L131 145 L130 148 L129 145 L126 144 L129 143 Z" />
    
    <!-- Tiny sparkles -->
    <circle cx="60" cy="40" r="2" />
    <circle cx="120" cy="35" r="1.5" />
    <circle cx="40" cy="80" r="1.5" />
    <circle cx="140" cy="85" r="2" />
    <circle cx="45" cy="140" r="1.5" />
    <circle cx="125" cy="145" r="1.5" />
    <circle cx="35" cy="100" r="1" />
    <circle cx="145" cy="65" r="1" />
  </g>
  
  <!-- Central "F" with better sizing for touch icon -->
  <text x="90" y="110" font-family="Arial, sans-serif" font-size="60" font-weight="bold" fill="white" text-anchor="middle">F</text>
</svg>