<svg xmlns="http://www.w3.org/2000/svg" viewBox="0 0 32 32" width="32" height="32">
  <defs>
    <linearGradient id="grad32" x1="0%" y1="0%" x2="100%" y2="100%">
      <stop offset="0%" style="stop-color:#4F46E5;stop-opacity:1" />
      <stop offset="100%" style="stop-color:#7C3AED;stop-opacity:1" />
    </linearGradient>
  </defs>
  
  <!-- Rounded square -->
  <rect x="3" y="3" width="26" height="26" rx="6" ry="6" fill="url(#grad32)" />
  
  <!-- Sparkles for 32px -->
  <g fill="white">
    <!-- Main sparkle -->
    <path d="M16 6 L17.5 11.5 L23 13 L17.5 14.5 L16 20 L14.5 14.5 L9 13 L14.5 11.5 Z" opacity="0.9" />
    
    <!-- Small sparkles -->
    <path d="M23 9 L23.5 10.5 L25 11 L23.5 11.5 L23 13 L22.5 11.5 L21 11 L22.5 10.5 Z" opacity="0.7" />
    <path d="M9 19 L9.5 20.5 L11 21 L9.5 21.5 L9 23 L8.5 21.5 L7 21 L8.5 20.5 Z" opacity="0.7" />
    
    <!-- Tiny dots -->
    <circle cx="11" cy="9" r="0.8" opacity="0.6" />
    <circle cx="21" cy="23" r="0.8" opacity="0.6" />
    <circle cx="7" cy="16" r="0.5" opacity="0.5" />
    <circle cx="25" cy="16" r="0.5" opacity="0.5" />
  </g>
</svg>