<svg xmlns="http://www.w3.org/2000/svg" viewBox="0 0 100 100" width="100" height="100">
  <defs>
    <linearGradient id="grad1" x1="0%" y1="0%" x2="100%" y2="100%">
      <stop offset="0%" style="stop-color:#4F46E5;stop-opacity:1" />
      <stop offset="100%" style="stop-color:#7C3AED;stop-opacity:1" />
    </linearGradient>
  </defs>
  
  <!-- Rounded square background like the original -->
  <rect x="10" y="10" width="80" height="80" rx="20" ry="20" fill="url(#grad1)" />
  
  <!-- Main sparkle/star in center -->
  <g fill="white">
    <!-- Central star with 4 points -->
    <path d="M50 25 L55 40 L70 45 L55 50 L50 65 L45 50 L30 45 L45 40 Z" opacity="0.9" />
    
    <!-- Smaller sparkles around -->
    <g opacity="0.7">
      <!-- Top right -->
      <path d="M70 30 L72 35 L77 37 L72 39 L70 44 L68 39 L63 37 L68 35 Z" />
      
      <!-- Bottom left -->
      <path d="M30 56 L32 61 L37 63 L32 65 L30 70 L28 65 L23 63 L28 61 Z" />
      
      <!-- Top left small -->
      <circle cx="35" cy="30" r="2" />
      
      <!-- Bottom right small -->
      <circle cx="65" cy="70" r="2" />
      
      <!-- Additional tiny sparkles -->
      <circle cx="25" cy="45" r="1" />
      <circle cx="75" cy="55" r="1" />
    </g>
  </g>
</svg>